<?xml version="1.0" standalone="no"?><!DOCTYPE svg PUBLIC "-//W3C//DTD SVG 1.1//EN" "http://www.w3.org/Graphics/SVG/1.1/DTD/svg11.dtd"><svg class="icon" height="512" viewBox="0 0 1024 1024" version="1.1" xmlns="http://www.w3.org/2000/svg"><path d="M41.733069 133.405989v659.280944h348.055792v56.498618h245.113113v-56.498618H982.266931V133.405989H41.733069z m859.448191 584.237994H120.421628V209.439412h780.759632v508.204571z m-680.813344 179.949931h583.955002v-48.083754H220.367916v48.083754z m15.256625-277.48246h101.577657l0.07491 0.22473h347.614656c0.033293-0.066586 0.04994-0.14982 0.07491-0.22473h104.09962c9.571805 0 17.395715-7.507624 17.395715-16.67991v-72.870566c0-9.172286-7.82391-16.67991-17.395715-16.67991H684.966674a169.695614 169.695614 0 0 0-9.205579-22.298144l75.550671-49.681828c7.890496-5.193745 9.921384-15.631173 4.511234-23.197061l-42.973242-60.102611c-5.410151-7.565887-16.297038-9.513542-24.187535-4.32812l-89.775205 59.037227-0.233053 0.158143a184.777449 184.777449 0 0 0-32.177911-13.217414V302.227655c0-9.172286-7.82391-16.67991-17.395715-16.67991h-75.991806c-9.580128 0-17.404038 7.507624-17.404038 16.67991v98.023605a185.693013 185.693013 0 0 0-30.130377 12.160354l-88.410183-58.13831c-7.890496-5.193745-18.777384-3.24609-24.187535 4.319797l-42.973242 60.102611c-5.410151 7.565887-3.379263 18.003316 4.511234 23.188737l72.828949 47.883994a170.411419 170.411419 0 0 0-10.129466 24.095978H235.624541c-9.571805 0-17.404038 7.507624-17.404038 16.67991v72.870566c0.008323 9.188933 7.840557 16.696557 17.404038 16.696557z m275.726241-117.35865c26.176805 0 48.408362 16.163865 56.465325 38.636798 2.11412 4.136684 3.753812 8.548038 4.827519 13.167474h-1.856098c0.174789 1.797835 0.274669 3.612316 0.274669 5.451768 0 31.628572-26.734467 57.264363-59.711415 57.264362s-59.711415-25.63579-59.711415-57.264362c0-31.620249 26.734467-57.256039 59.711415-57.25604z" /></svg>